<svg width="24" height="24" viewBox="0 0 24 24" fill="none" xmlns="http://www.w3.org/2000/svg">
<path fill-rule="evenodd" clip-rule="evenodd" d="M17.031 2.469C17.1008 2.53867 17.1563 2.62143 17.1941 2.71255C17.2319 2.80367 17.2513 2.90135 17.2513 3C17.2513 3.09865 17.2319 3.19633 17.1941 3.28745C17.1563 3.37857 17.1008 3.46133 17.031 3.531L8.5605 12L17.031 20.469C17.1007 20.5387 17.156 20.6215 17.1938 20.7126C17.2315 20.8037 17.2509 20.9014 17.2509 21C17.2509 21.0986 17.2315 21.1963 17.1938 21.2874C17.156 21.3785 17.1007 21.4613 17.031 21.531C16.9613 21.6007 16.8785 21.656 16.7874 21.6938C16.6963 21.7315 16.5986 21.7509 16.5 21.7509C16.4014 21.7509 16.3037 21.7315 16.2126 21.6938C16.1215 21.656 16.0387 21.6007 15.969 21.531L6.969 12.531C6.89916 12.4613 6.84374 12.3786 6.80593 12.2874C6.76813 12.1963 6.74866 12.0987 6.74866 12C6.74866 11.9013 6.76813 11.8037 6.80593 11.7125C6.84374 11.6214 6.89916 11.5387 6.969 11.469L15.969 2.469C16.0387 2.39916 16.1214 2.34374 16.2126 2.30593C16.3037 2.26812 16.4014 2.24866 16.5 2.24866C16.5987 2.24866 16.6963 2.26812 16.7875 2.30593C16.8786 2.34374 16.9613 2.39916 17.031 2.469Z" fill="white"/>
</svg>
