<svg width="16" height="20" viewBox="0 0 16 20" fill="none" xmlns="http://www.w3.org/2000/svg">
<path fill-rule="evenodd" clip-rule="evenodd" d="M7.69445 0.222229C3.48033 0.222229 0.0555573 3.27778 0.0555573 6.94445C0.0555573 12.4689 7.69445 19.7778 7.69445 19.7778C7.69445 19.7778 15.3333 12.4689 15.3333 6.94445C15.3333 3.27778 11.9086 0.222229 7.69445 0.222229ZM7.69445 18.0056C5.32639 15.5245 1.32871 10.5378 1.32871 6.94445C1.32871 3.91334 4.19329 1.44445 7.69445 1.44445C9.40047 1.44445 11.0174 2.03112 12.2269 3.10667C13.3982 4.15778 14.0602 5.51445 14.0602 6.94445C14.0602 10.5378 10.0625 15.5245 7.69445 18.0056ZM10.2407 6.94445C10.2407 8.30112 9.10764 9.3889 7.69445 9.3889C6.28125 9.3889 5.14815 8.30112 5.14815 6.94445C5.14815 5.58779 6.28125 4.50001 7.69445 4.50001C9.10764 4.50001 10.2407 5.58779 10.2407 6.94445Z" fill="#2188FF"/>
</svg>
